<?xml version="1.0" encoding="UTF-8"?>
<!-- Created with Inkscape (http://www.inkscape.org/) -->
<svg width="66.04mm" height="11.131mm" version="1.1" viewBox="0 0 66.04 11.131" xmlns="http://www.w3.org/2000/svg" xmlns:xlink="http://www.w3.org/1999/xlink">
 <defs>
  <linearGradient id="linearGradient4" x1="40.915" x2="439.48" y1="55.356" y2="-14.441" gradientUnits="userSpaceOnUse">
   <stop stop-color="#ff0" offset="0"/>
   <stop stop-color="#f0f" offset="1"/>
  </linearGradient>
 </defs>
 <g transform="translate(-32.621 -55.809)">
  <path transform="matrix(.26458 0 0 .26458 15.594 52.819)" d="m74.935 43.26q-2.688 0-4.6933-0.85333-1.9627-0.896-3.2853-2.432-1.28-1.5787-1.9627-3.6693-0.64-2.0907-0.64-4.5227t0.64-4.5653q0.68267-2.1333 1.9627-3.6693 1.3227-1.5787 3.2853-2.4747 2.0053-0.896 4.6933-0.896t4.6933 0.896q2.0053 0.896 3.328 2.4747 1.3227 1.536 1.9627 3.6693 0.64 2.1333 0.64 4.5653t-0.64 4.5227q-0.64 2.0907-1.9627 3.6693-1.3227 1.536-3.328 2.432-2.0053 0.85333-4.6933 0.85333zm0-4.608q2.3893 0 3.4133-1.7493 1.0667-1.792 1.0667-5.12 0-3.328-1.0667-5.0773-1.024-1.792-3.4133-1.792-2.3467 0-3.4133 1.792-1.024 1.7493-1.024 5.0773 0 3.328 1.024 5.12 1.0667 1.7493 3.4133 1.7493zm19.669-5.504q-2.3893-0.68267-3.7547-2.0053-1.3227-1.3653-1.3227-4.0533 0-3.2427 2.304-5.0773 2.3467-1.8347 6.3573-1.8347 1.664 0 3.2853 0.29867 1.6213 0.29867 3.2853 0.896-0.0853 1.1093-0.42667 2.304-0.34133 1.1947-0.81066 2.0907-1.024-0.42667-2.2613-0.72533-1.2373-0.34133-2.6027-0.34133-1.4507 0-2.2613 0.46933-0.81067 0.42667-0.81067 1.408 0 0.93867 0.55467 1.3227 0.59733 0.384 1.664 0.72533l2.432 0.72533q1.1947 0.34133 2.1333 0.85333 0.98134 0.46933 1.664 1.1947 0.68266 0.72533 1.0667 1.792 0.384 1.0667 0.384 2.6027 0 1.5787-0.68266 2.944-0.64 1.3653-1.92 2.3893-1.2373 0.98133-3.0293 1.5787-1.792 0.55467-4.0533 0.55467-1.024 0-1.8773-0.08533-0.85333-0.04267-1.664-0.21333-0.768-0.128-1.536-0.34133-0.768-0.21333-1.664-0.55467 0.08533-1.152 0.384-2.304 0.34133-1.1947 0.85333-2.304 1.408 0.55467 2.6453 0.85333 1.28 0.256 2.6453 0.256 0.59733 0 1.28-0.08533 0.72533-0.128 1.3227-0.384 0.59733-0.29867 0.98133-0.72533 0.42667-0.46933 0.42667-1.1947 0-1.024-0.64-1.4507-0.59733-0.46933-1.7067-0.81067zm14.976-12.459q1.536-0.256 3.0293-0.256 1.4933 0 3.0293 0.256v11.691q0 1.7493 0.256 2.9013 0.29866 1.1093 0.85333 1.792 0.59733 0.64 1.4507 0.93867 0.85333 0.256 2.0053 0.256 1.5787 0 2.6453-0.29867v-17.28q1.536-0.256 2.9867-0.256 1.4933 0 3.0293 0.256v21.205q-1.3653 0.46933-3.6267 0.896-2.2187 0.46933-4.6507 0.46933-2.176 0-4.1813-0.34133-2.0053-0.34133-3.5413-1.4507-1.4933-1.1093-2.3893-3.2427t-0.896-5.6747zm24.875-8.6187q1.664-0.256 3.2853-0.256 1.664 0 3.328 0.256l-0.42667 20.864q-1.4933 0.256-2.8587 0.256-1.4507 0-2.9013-0.256zm0.17067 30.677q-0.256-1.5787-0.256-3.1147t0.256-3.1573q1.5787-0.256 3.1147-0.256t3.1573 0.256q0.256 1.6213 0.256 3.1147 0 1.5787-0.256 3.1573-1.6213 0.256-3.1147 0.256-1.5787 0-3.1573-0.256zm16.768-9.6q-2.3893-0.68267-3.7547-2.0053-1.3227-1.3653-1.3227-4.0533 0-3.2427 2.304-5.0773 2.3467-1.8347 6.3573-1.8347 1.664 0 3.2853 0.29867 1.6213 0.29867 3.2853 0.896-0.0853 1.1093-0.42666 2.304-0.34134 1.1947-0.81067 2.0907-1.024-0.42667-2.2613-0.72533-1.2373-0.34133-2.6027-0.34133-1.4507 0-2.2613 0.46933-0.81067 0.42667-0.81067 1.408 0 0.93867 0.55467 1.3227 0.59733 0.384 1.664 0.72533l2.432 0.72533q1.1947 0.34133 2.1333 0.85333 0.98133 0.46933 1.664 1.1947 0.68267 0.72533 1.0667 1.792 0.384 1.0667 0.384 2.6027 0 1.5787-0.68267 2.944-0.64 1.3653-1.92 2.3893-1.2373 0.98133-3.0293 1.5787-1.792 0.55467-4.0533 0.55467-1.024 0-1.8773-0.08533-0.85333-0.04267-1.664-0.21333-0.768-0.128-1.536-0.34133-0.768-0.21333-1.664-0.55467 0.0853-1.152 0.384-2.304 0.34133-1.1947 0.85333-2.304 1.408 0.55467 2.6453 0.85333 1.28 0.256 2.6453 0.256 0.59734 0 1.28-0.08533 0.72533-0.128 1.3227-0.384 0.59734-0.29867 0.98134-0.72533 0.42666-0.46933 0.42666-1.1947 0-1.024-0.64-1.4507-0.59733-0.46933-1.7067-0.81067zm14.976-21.589q1.4507-0.256 2.9867-0.256t3.0293 0.256v31.189q-1.4933 0.256-3.0293 0.256t-2.9867-0.256zm6.8693 19.627 5.4613-10.496q1.664-0.256 3.3707-0.256 1.6213 0 3.1573 0.256l-5.632 10.197 6.5707 11.861q-1.7493 0.256-3.3707 0.256-1.4933 0-3.1573-0.256zm16.341-10.496q0.64-0.128 1.1947-0.17067 0.59733-0.08533 1.28-0.08533 0.64 0 1.2373 0.08533 0.64 0.08533 1.2373 0.21333 0.128 0.21333 0.21333 0.64 0.128 0.384 0.21334 0.85333 0.0853 0.42667 0.128 0.896 0.0853 0.42667 0.128 0.72533 0.93867-1.3227 2.304-2.3467 1.3653-1.0667 3.4133-1.0667 0.42666 0 0.98133 0.04267t0.81067 0.128q0.0853 0.42667 0.128 0.98133t0.0427 1.152q0 0.72533-0.0853 1.5787-0.0427 0.85333-0.21333 1.6213-0.46934-0.08533-1.0667-0.08533-0.55467 0-0.68267 0-0.72533 0-1.6213 0.17067-0.896 0.128-1.7067 0.768-0.81067 0.64-1.3653 1.92-0.51201 1.28-0.51201 3.584v10.496q-0.768 0.128-1.536 0.17067-0.768 0.04267-1.4933 0.04267t-1.4933-0.04267q-0.72533-0.04267-1.536-0.17067zm16.768 0q1.536-0.256 3.0293-0.256 1.4933 0 3.0293 0.256v11.691q0 1.7493 0.256 2.9013 0.29867 1.1093 0.85334 1.792 0.59733 0.64 1.4507 0.93867 0.85334 0.256 2.0053 0.256 1.5787 0 2.6453-0.29867v-17.28q1.536-0.256 2.9867-0.256 1.4933 0 3.0293 0.256v21.205q-1.3653 0.46933-3.6267 0.896-2.2187 0.46933-4.6507 0.46933-2.176 0-4.1813-0.34133-2.0053-0.34133-3.5413-1.4507-1.4933-1.1093-2.3893-3.2427t-0.896-5.6747zm24.789 0q0.59733-0.128 1.1947-0.17067 0.59734-0.08533 1.3227-0.08533 0.72534 0 1.28 0.08533 0.55467 0.04267 1.152 0.17067 0.128 0.21333 0.21334 0.64 0.128 0.384 0.21333 0.85333 0.0853 0.42667 0.128 0.85333 0.0853 0.42667 0.128 0.72533 0.42667-0.64 1.024-1.28 0.59734-0.64 1.3653-1.152 0.81066-0.512 1.792-0.81067 0.98133-0.34133 2.176-0.34133 3.7547 0 5.632 2.048 1.92 2.048 1.92 6.4427v14.08q-1.536 0.256-3.0293 0.256t-3.0293-0.256v-12.459q0-2.304-0.72533-3.5413-0.68267-1.2373-2.432-1.2373-0.72534 0-1.4933 0.21333-0.768 0.21333-1.408 0.85333-0.59733 0.59733-0.98133 1.7067-0.384 1.1093-0.384 2.9013v11.563q-1.536 0.256-3.0293 0.256-1.4933 0-3.0293-0.256zm37.419 18.389q3.8827 0.08533 5.7173 1.7493 1.8347 1.6213 1.8347 4.6507 0 1.792-0.93866 3.2427-0.93867 1.4933-2.56 2.5173-1.6213 1.024-3.84 1.5787t-4.7787 0.55467-4.352-0.42667q-1.792-0.384-2.944-1.1093-1.1093-0.72533-1.6213-1.792-0.46933-1.0667-0.46933-2.3467 0-1.92 0.896-3.1573 0.93867-1.2373 2.4747-2.176-0.98134-0.59733-1.5787-1.4507-0.55467-0.896-0.55467-2.2613 0-1.6213 0.68267-2.6453t2.0053-1.9627q-1.4933-1.0667-2.304-2.6027-0.81066-1.536-0.81066-3.4133 0-1.664 0.64-3.072 0.64-1.4507 1.8347-2.4747 1.2373-1.0667 2.9867-1.664 1.7493-0.59733 3.9253-0.59733 2.1333 0 3.9253 0.68267 1.792 0.64 2.9867 1.664 0.81067-1.0667 2.0053-1.5787 1.1947-0.55467 3.2427-0.55467 0.0853 0.55467 0.128 1.1093 0.0853 0.512 0.0853 1.1093 0 0.68267-0.0427 1.3653t-0.17067 1.408h-3.456q0.21333 0.42667 0.384 1.024 0.17066 0.59733 0.17066 1.5787 0 1.664-0.64 3.1147-0.59733 1.408-1.792 2.432t-2.944 1.6213q-1.7067 0.59733-3.8827 0.59733-1.8347 0-3.2853-0.384-0.72533 0.46933-0.896 1.024-0.17066 0.512-0.17066 0.98133 0 0.68267 0.42666 1.1093 0.46934 0.42667 1.8347 0.46933zm-5.4613 4.4373q-0.93867-0.04267-1.5787 0.21333-0.59733 0.256-0.98133 0.64-0.34133 0.42667-0.512 0.896-0.128 0.512-0.128 0.98133 0 1.6213 1.1947 2.176 1.2373 0.59733 3.2853 0.59733 2.688 0 4.3093-0.85333 1.664-0.85333 1.664-2.304 0-0.42667-0.128-0.81067-0.0853-0.384-0.384-0.72533-0.29867-0.29867-0.85333-0.512-0.512-0.21333-1.408-0.21333zm1.7493-11.648q1.792 0 2.56-1.024 0.81067-1.024 0.81067-2.816 0-1.792-0.81067-2.816-0.768-1.0667-2.56-1.0667-1.8347 0-2.6453 1.0667-0.81067 1.024-0.81067 2.816 0 1.792 0.81067 2.816 0.81067 1.024 2.6453 1.024zm15.317-20.309q1.536-0.256 3.0293-0.256 1.4507 0 2.9867 0.256v22.4q0 1.3227 0.128 2.1333 0.17066 0.81067 0.46933 1.28 0.34133 0.42667 0.85333 0.59733 0.51201 0.17067 1.28 0.17067 0.34133 0 0.72533-0.04267 0.42667-0.04267 0.81067-0.128 0.46933 1.7493 0.46933 3.4133 0 0.34133 0 0.64 0 0.256-0.0853 0.59733-0.68267 0.21333-1.664 0.29867-0.93867 0.08533-1.7493 0.08533-3.2853 0-5.2907-1.792-1.9627-1.8347-1.9627-5.9307zm11.435 9.1307q0.98134-0.21333 1.7067-0.21333 0.768-0.04267 1.408-0.04267 0.85333 0 1.7493 0.04267 0.896 0.04267 1.6213 0.21333l4.608 19.243 5.2053-19.243q1.408-0.256 2.9013-0.256 0.64 0 1.3653 0.04267 0.72533 0 1.792 0.21333l-8.2347 27.264q-0.512 1.6213-1.2373 2.688-0.68266 1.0667-1.5787 1.664t-2.0053 0.81067q-1.1093 0.256-2.3893 0.256-1.1947 0-2.176-0.17067-0.93867-0.128-1.8773-0.384-0.0427-0.21333-0.0427-0.384 0-0.128 0-0.29867 0-1.024 0.21334-1.9627 0.256-0.896 0.59733-1.7493 0.384 0.128 1.024 0.21333 0.64 0.128 1.28 0.128 0.512 0 1.024-0.08533 0.512-0.04267 0.98134-0.384 0.512-0.29867 0.93867-0.98133 0.42666-0.68267 0.768-1.92l0.72533-2.6453q-0.46933 0.04267-1.0667 0.04267-0.55466 0.04267-1.152 0.04267-0.46933 0-0.896 0t-0.768-0.08533z" fill="url(#linearGradient4)" style="white-space:pre" aria-label="osu!skrungly"/>
 </g>
</svg>
